<svg xmlns="http://www.w3.org/2000/svg" viewBox="0 0 96 96" role="img" aria-label="Wisteria archive mark">
  <defs>
    <linearGradient id="mark-gold" x1="16" y1="12" x2="80" y2="86" gradientUnits="userSpaceOnUse">
      <stop offset="0" stop-color="#f3d59a"/>
      <stop offset="0.45" stop-color="#b9803a"/>
      <stop offset="1" stop-color="#5f351c"/>
    </linearGradient>
  </defs>
  <path fill="none" stroke="url(#mark-gold)" stroke-width="2.4" stroke-linecap="round" stroke-linejoin="round" d="M48 9c13 15 22 23 33 25-8 11-17 17-28 19 8 7 14 16 19 28-13-4-23-10-30-19-7 9-17 15-30 19 5-12 11-21 19-28-11-2-20-8-28-19 11-2 20-10 33-25 3 8 6 15 12 21 6-6 9-13 12-21Z"/>
  <path fill="none" stroke="#f4d99f" stroke-width="1.2" stroke-linecap="round" opacity=".58" d="M48 22v49M28 37c9 6 15 8 20 8s11-2 20-8M31 70c7-8 12-13 17-18 5 5 10 10 17 18"/>
  <circle cx="48" cy="48" r="4" fill="#f2d18a"/>
</svg>
